<svg width="20" height="21" viewBox="0 0 20 21" fill="none" xmlns="http://www.w3.org/2000/svg">
<path d="M9.99995 0.804443C4.50713 0.804443 0.0544434 5.25713 0.0544434 10.75C0.0544434 16.2428 4.50713 20.6955 9.99995 20.6955C15.4928 20.6955 19.9455 16.2428 19.9455 10.75C19.9455 5.25713 15.4928 0.804443 9.99995 0.804443ZM7.56537 14.8722H5.55141V8.391H7.56537V14.8722ZM6.54596 7.59536C5.90986 7.59536 5.49857 7.1447 5.49857 6.58734C5.49857 6.01858 5.92229 5.58139 6.57186 5.58139C7.22142 5.58139 7.61924 6.01858 7.63168 6.58734C7.63168 7.1447 7.22142 7.59536 6.54596 7.59536ZM14.9209 14.8722H12.9069V11.2804C12.9069 10.4443 12.6148 9.87661 11.8865 9.87661C11.3302 9.87661 10.9997 10.261 10.8536 10.6308C10.7997 10.7624 10.7863 10.9489 10.7863 11.1343V14.8711H8.77127V10.4578C8.77127 9.64869 8.74537 8.97219 8.71843 8.38996H10.4682L10.5604 9.29024H10.6008C10.866 8.86756 11.5156 8.24389 12.6024 8.24389C13.9274 8.24389 14.9209 9.13173 14.9209 11.04V14.8722Z" fill="#1E1E1E"/>
</svg>
