<svg width="20" height="20" viewBox="0 0 20 20" fill="none" xmlns="http://www.w3.org/2000/svg">
<path d="M13 9.75C13 10.3433 12.8241 10.9234 12.4944 11.4167C12.1648 11.9101 11.6962 12.2946 11.1481 12.5216C10.5999 12.7487 9.99667 12.8081 9.41473 12.6924C8.83279 12.5766 8.29824 12.2909 7.87868 11.8713C7.45912 11.4518 7.1734 10.9172 7.05764 10.3353C6.94189 9.75333 7.0013 9.15013 7.22836 8.60195C7.45542 8.05377 7.83994 7.58524 8.33329 7.25559C8.82664 6.92595 9.40666 6.75 10 6.75C10.7949 6.75247 11.5565 7.06934 12.1186 7.63141C12.6807 8.19349 12.9975 8.95511 13 9.75ZM19.375 5.625V13.875C19.375 15.2674 18.8219 16.6027 17.8373 17.5873C16.8527 18.5719 15.5174 19.125 14.125 19.125H5.875C4.48261 19.125 3.14726 18.5719 2.16269 17.5873C1.17812 16.6027 0.625 15.2674 0.625 13.875V5.625C0.625 4.23261 1.17812 2.89726 2.16269 1.91269C3.14726 0.928123 4.48261 0.375 5.875 0.375H14.125C15.5174 0.375 16.8527 0.928123 17.8373 1.91269C18.8219 2.89726 19.375 4.23261 19.375 5.625ZM14.5 9.75C14.5 8.85998 14.2361 7.98995 13.7416 7.24993C13.2471 6.50991 12.5443 5.93314 11.7221 5.59254C10.8998 5.25195 9.99501 5.16283 9.12209 5.33647C8.24918 5.5101 7.44736 5.93868 6.81802 6.56802C6.18868 7.19736 5.7601 7.99918 5.58647 8.87209C5.41283 9.74501 5.50195 10.6498 5.84254 11.4721C6.18314 12.2943 6.75991 12.9971 7.49993 13.4916C8.23995 13.9861 9.10998 14.25 10 14.25C11.1935 14.25 12.3381 13.7759 13.182 12.932C14.0259 12.0881 14.5 10.9435 14.5 9.75ZM16 4.875C16 4.6525 15.934 4.43499 15.8104 4.24998C15.6868 4.06498 15.5111 3.92078 15.3055 3.83564C15.1 3.75049 14.8738 3.72821 14.6555 3.77162C14.4373 3.81502 14.2368 3.92217 14.0795 4.0795C13.9222 4.23684 13.815 4.43729 13.7716 4.65552C13.7282 4.87375 13.7505 5.09995 13.8356 5.30552C13.9208 5.51109 14.065 5.68679 14.25 5.8104C14.435 5.93402 14.6525 6 14.875 6C15.1734 6 15.4595 5.88147 15.6705 5.6705C15.8815 5.45952 16 5.17337 16 4.875Z" fill="#1E1E1E"/>
</svg>
